<svg width="400" height="70" viewBox="0 0 400 70" fill="none" xmlns="http://www.w3.org/2000/svg">
<g clip-path="url(#clip0_0_265)">
<path d="M12 1.5C9.62663 1.5 7.30655 2.20379 5.33316 3.52236C3.35977 4.84094 1.8217 6.71509 0.913451 8.9078C0.00519943 11.1005 -0.232441 13.5133 0.230582 15.8411C0.693605 18.1689 1.83649 20.3071 3.51472 21.9853C5.19295 23.6635 7.33115 24.8064 9.65892 25.2694C11.9867 25.7324 14.3995 25.4948 16.5922 24.5866C18.7849 23.6783 20.6591 22.1402 21.9776 20.1668C23.2962 18.1935 24 15.8734 24 13.5C24 10.3174 22.7357 7.26515 20.4853 5.01472C18.2348 2.76428 15.1826 1.5 12 1.5V1.5ZM18.82 10.605L11.29 19.145C11.1685 19.2819 11.0211 19.3935 10.8564 19.4733C10.6916 19.5531 10.5128 19.5995 10.33 19.61H10.24C9.89893 19.6121 9.56926 19.4874 9.31501 19.26L5.28501 15.685C5.00785 15.439 4.83977 15.093 4.81774 14.7231C4.7957 14.3532 4.92152 13.9897 5.16751 13.7125C5.41349 13.4353 5.7595 13.2673 6.12942 13.2452C6.49934 13.2232 6.86285 13.349 7.14001 13.595L10.14 16.24L16.745 8.74C16.9903 8.46219 17.336 8.2932 17.7059 8.27023C18.0758 8.24726 18.4397 8.37217 18.7175 8.6175C18.9953 8.86282 19.1643 9.20846 19.1873 9.57838C19.2102 9.9483 19.0853 10.3122 18.84 10.59L18.82 10.605Z" fill="#F0B70D"/>
</g>
<path d="M42.478 7.454V8.786H37.024V13.016H41.452V14.348H37.024V20H35.386V7.454H42.478ZM46.0943 11.738C46.3823 11.174 46.7903 10.736 47.3183 10.424C47.8583 10.112 48.5123 9.956 49.2803 9.956V11.648H48.8483C47.0123 11.648 46.0943 12.644 46.0943 14.636V20H44.4563V10.136H46.0943V11.738ZM60.1712 14.69C60.1712 15.002 60.1532 15.332 60.1172 15.68H52.2332C52.2932 16.652 52.6232 17.414 53.2232 17.966C53.8352 18.506 54.5732 18.776 55.4372 18.776C56.1452 18.776 56.7332 18.614 57.2012 18.29C57.6812 17.954 58.0172 17.51 58.2092 16.958H59.9732C59.7092 17.906 59.1812 18.68 58.3892 19.28C57.5972 19.868 56.6132 20.162 55.4372 20.162C54.5012 20.162 53.6612 19.952 52.9172 19.532C52.1852 19.112 51.6092 18.518 51.1892 17.75C50.7692 16.97 50.5592 16.07 50.5592 15.05C50.5592 14.03 50.7632 13.136 51.1712 12.368C51.5792 11.6 52.1492 11.012 52.8812 10.604C53.6252 10.184 54.4772 9.974 55.4372 9.974C56.3732 9.974 57.2012 10.178 57.9212 10.586C58.6412 10.994 59.1932 11.558 59.5772 12.278C59.9732 12.986 60.1712 13.79 60.1712 14.69ZM58.4792 14.348C58.4792 13.724 58.3412 13.19 58.0652 12.746C57.7892 12.29 57.4112 11.948 56.9312 11.72C56.4632 11.48 55.9412 11.36 55.3652 11.36C54.5372 11.36 53.8292 11.624 53.2412 12.152C52.6652 12.68 52.3352 13.412 52.2512 14.348H58.4792ZM65.8253 20.162C65.0693 20.162 64.3913 20.036 63.7913 19.784C63.1913 19.52 62.7173 19.16 62.3693 18.704C62.0213 18.236 61.8293 17.702 61.7933 17.102H63.4853C63.5333 17.594 63.7613 17.996 64.1693 18.308C64.5893 18.62 65.1353 18.776 65.8073 18.776C66.4313 18.776 66.9233 18.638 67.2833 18.362C67.6433 18.086 67.8233 17.738 67.8233 17.318C67.8233 16.886 67.6313 16.568 67.2473 16.364C66.8633 16.148 66.2693 15.938 65.4653 15.734C64.7333 15.542 64.1333 15.35 63.6653 15.158C63.2093 14.954 62.8133 14.66 62.4773 14.276C62.1533 13.88 61.9913 13.364 61.9913 12.728C61.9913 12.224 62.1413 11.762 62.4413 11.342C62.7413 10.922 63.1673 10.592 63.7193 10.352C64.2713 10.1 64.9013 9.974 65.6093 9.974C66.7013 9.974 67.5833 10.25 68.2553 10.802C68.9273 11.354 69.2873 12.11 69.3353 13.07H67.6973C67.6613 12.554 67.4513 12.14 67.0673 11.828C66.6953 11.516 66.1913 11.36 65.5553 11.36C64.9673 11.36 64.4993 11.486 64.1513 11.738C63.8033 11.99 63.6293 12.32 63.6293 12.728C63.6293 13.052 63.7313 13.322 63.9353 13.538C64.1513 13.742 64.4153 13.91 64.7273 14.042C65.0513 14.162 65.4953 14.3 66.0593 14.456C66.7673 14.648 67.3433 14.84 67.7873 15.032C68.2313 15.212 68.6093 15.488 68.9213 15.86C69.2453 16.232 69.4133 16.718 69.4253 17.318C69.4253 17.858 69.2753 18.344 68.9753 18.776C68.6753 19.208 68.2493 19.55 67.6973 19.802C67.1573 20.042 66.5333 20.162 65.8253 20.162ZM76.6336 9.956C77.3776 9.956 78.0496 10.118 78.6496 10.442C79.2496 10.754 79.7176 11.228 80.0536 11.864C80.4016 12.5 80.5756 13.274 80.5756 14.186V20H78.9556V14.42C78.9556 13.436 78.7096 12.686 78.2176 12.17C77.7256 11.642 77.0536 11.378 76.2016 11.378C75.3376 11.378 74.6476 11.648 74.1316 12.188C73.6276 12.728 73.3756 13.514 73.3756 14.546V20H71.7376V6.68H73.3756V11.54C73.6996 11.036 74.1436 10.646 74.7076 10.37C75.2836 10.094 75.9256 9.956 76.6336 9.956ZM98.4181 7.454L93.6841 20H91.7941L87.0601 7.454H88.8061L92.7481 18.272L96.6901 7.454H98.4181ZM109.214 14.69C109.214 15.002 109.196 15.332 109.16 15.68H101.276C101.336 16.652 101.666 17.414 102.266 17.966C102.878 18.506 103.616 18.776 104.48 18.776C105.188 18.776 105.776 18.614 106.244 18.29C106.724 17.954 107.06 17.51 107.252 16.958H109.016C108.752 17.906 108.224 18.68 107.432 19.28C106.64 19.868 105.656 20.162 104.48 20.162C103.544 20.162 102.704 19.952 101.96 19.532C101.228 19.112 100.652 18.518 100.232 17.75C99.8121 16.97 99.6021 16.07 99.6021 15.05C99.6021 14.03 99.8061 13.136 100.214 12.368C100.622 11.6 101.192 11.012 101.924 10.604C102.668 10.184 103.52 9.974 104.48 9.974C105.416 9.974 106.244 10.178 106.964 10.586C107.684 10.994 108.236 11.558 108.62 12.278C109.016 12.986 109.214 13.79 109.214 14.69ZM107.522 14.348C107.522 13.724 107.384 13.19 107.108 12.746C106.832 12.29 106.454 11.948 105.974 11.72C105.506 11.48 104.984 11.36 104.408 11.36C103.58 11.36 102.872 11.624 102.284 12.152C101.708 12.68 101.378 13.412 101.294 14.348H107.522ZM115.444 9.974C116.296 9.974 117.04 10.16 117.676 10.532C118.324 10.904 118.804 11.372 119.116 11.936V10.136H120.772V20.216C120.772 21.116 120.58 21.914 120.196 22.61C119.812 23.318 119.26 23.87 118.54 24.266C117.832 24.662 117.004 24.86 116.056 24.86C114.76 24.86 113.68 24.554 112.816 23.942C111.952 23.33 111.442 22.496 111.286 21.44H112.906C113.086 22.04 113.458 22.52 114.022 22.88C114.586 23.252 115.264 23.438 116.056 23.438C116.956 23.438 117.688 23.156 118.252 22.592C118.828 22.028 119.116 21.236 119.116 20.216V18.146C118.792 18.722 118.312 19.202 117.676 19.586C117.04 19.97 116.296 20.162 115.444 20.162C114.568 20.162 113.77 19.946 113.05 19.514C112.342 19.082 111.784 18.476 111.376 17.696C110.968 16.916 110.764 16.028 110.764 15.032C110.764 14.024 110.968 13.142 111.376 12.386C111.784 11.618 112.342 11.024 113.05 10.604C113.77 10.184 114.568 9.974 115.444 9.974ZM119.116 15.05C119.116 14.306 118.966 13.658 118.666 13.106C118.366 12.554 117.958 12.134 117.442 11.846C116.938 11.546 116.38 11.396 115.768 11.396C115.156 11.396 114.598 11.54 114.094 11.828C113.59 12.116 113.188 12.536 112.888 13.088C112.588 13.64 112.438 14.288 112.438 15.032C112.438 15.788 112.588 16.448 112.888 17.012C113.188 17.564 113.59 17.99 114.094 18.29C114.598 18.578 115.156 18.722 115.768 18.722C116.38 18.722 116.938 18.578 117.442 18.29C117.958 17.99 118.366 17.564 118.666 17.012C118.966 16.448 119.116 15.794 119.116 15.05ZM132.54 14.69C132.54 15.002 132.522 15.332 132.486 15.68H124.602C124.662 16.652 124.992 17.414 125.592 17.966C126.204 18.506 126.942 18.776 127.806 18.776C128.514 18.776 129.102 18.614 129.57 18.29C130.05 17.954 130.386 17.51 130.578 16.958H132.342C132.078 17.906 131.55 18.68 130.758 19.28C129.966 19.868 128.982 20.162 127.806 20.162C126.87 20.162 126.03 19.952 125.286 19.532C124.554 19.112 123.978 18.518 123.558 17.75C123.138 16.97 122.928 16.07 122.928 15.05C122.928 14.03 123.132 13.136 123.54 12.368C123.948 11.6 124.518 11.012 125.25 10.604C125.994 10.184 126.846 9.974 127.806 9.974C128.742 9.974 129.57 10.178 130.29 10.586C131.01 10.994 131.562 11.558 131.946 12.278C132.342 12.986 132.54 13.79 132.54 14.69ZM130.848 14.348C130.848 13.724 130.71 13.19 130.434 12.746C130.158 12.29 129.78 11.948 129.3 11.72C128.832 11.48 128.31 11.36 127.734 11.36C126.906 11.36 126.198 11.624 125.61 12.152C125.034 12.68 124.704 13.412 124.62 14.348H130.848ZM136.7 11.486V17.3C136.7 17.78 136.802 18.122 137.006 18.326C137.21 18.518 137.564 18.614 138.068 18.614H139.274V20H137.798C136.886 20 136.202 19.79 135.746 19.37C135.29 18.95 135.062 18.26 135.062 17.3V11.486H133.784V10.136H135.062V7.652H136.7V10.136H139.274V11.486H136.7ZM140.647 15.032C140.647 14.024 140.851 13.142 141.259 12.386C141.667 11.618 142.225 11.024 142.933 10.604C143.653 10.184 144.451 9.974 145.327 9.974C146.191 9.974 146.941 10.16 147.577 10.532C148.213 10.904 148.687 11.372 148.999 11.936V10.136H150.655V20H148.999V18.164C148.675 18.74 148.189 19.22 147.541 19.604C146.905 19.976 146.161 20.162 145.309 20.162C144.433 20.162 143.641 19.946 142.933 19.514C142.225 19.082 141.667 18.476 141.259 17.696C140.851 16.916 140.647 16.028 140.647 15.032ZM148.999 15.05C148.999 14.306 148.849 13.658 148.549 13.106C148.249 12.554 147.841 12.134 147.325 11.846C146.821 11.546 146.263 11.396 145.651 11.396C145.039 11.396 144.481 11.54 143.977 11.828C143.473 12.116 143.071 12.536 142.771 13.088C142.471 13.64 142.321 14.288 142.321 15.032C142.321 15.788 142.471 16.448 142.771 17.012C143.071 17.564 143.473 17.99 143.977 18.29C144.481 18.578 145.039 18.722 145.651 18.722C146.263 18.722 146.821 18.578 147.325 18.29C147.841 17.99 148.249 17.564 148.549 17.012C148.849 16.448 148.999 15.794 148.999 15.05ZM155.061 11.972C155.397 11.384 155.889 10.904 156.537 10.532C157.185 10.16 157.923 9.974 158.751 9.974C159.639 9.974 160.437 10.184 161.145 10.604C161.853 11.024 162.411 11.618 162.819 12.386C163.227 13.142 163.431 14.024 163.431 15.032C163.431 16.028 163.227 16.916 162.819 17.696C162.411 18.476 161.847 19.082 161.127 19.514C160.419 19.946 159.627 20.162 158.751 20.162C157.899 20.162 157.149 19.976 156.501 19.604C155.865 19.232 155.385 18.758 155.061 18.182V20H153.423V6.68H155.061V11.972ZM161.757 15.032C161.757 14.288 161.607 13.64 161.307 13.088C161.007 12.536 160.599 12.116 160.083 11.828C159.579 11.54 159.021 11.396 158.409 11.396C157.809 11.396 157.251 11.546 156.735 11.846C156.231 12.134 155.823 12.56 155.511 13.124C155.211 13.676 155.061 14.318 155.061 15.05C155.061 15.794 155.211 16.448 155.511 17.012C155.823 17.564 156.231 17.99 156.735 18.29C157.251 18.578 157.809 18.722 158.409 18.722C159.021 18.722 159.579 18.578 160.083 18.29C160.599 17.99 161.007 17.564 161.307 17.012C161.607 16.448 161.757 15.788 161.757 15.032ZM167.225 6.68V20H165.587V6.68H167.225ZM179.017 14.69C179.017 15.002 178.999 15.332 178.963 15.68H171.079C171.139 16.652 171.469 17.414 172.069 17.966C172.681 18.506 173.419 18.776 174.283 18.776C174.991 18.776 175.579 18.614 176.047 18.29C176.527 17.954 176.863 17.51 177.055 16.958H178.819C178.555 17.906 178.027 18.68 177.235 19.28C176.443 19.868 175.459 20.162 174.283 20.162C173.347 20.162 172.507 19.952 171.763 19.532C171.031 19.112 170.455 18.518 170.035 17.75C169.615 16.97 169.405 16.07 169.405 15.05C169.405 14.03 169.609 13.136 170.017 12.368C170.425 11.6 170.995 11.012 171.727 10.604C172.471 10.184 173.323 9.974 174.283 9.974C175.219 9.974 176.047 10.178 176.767 10.586C177.487 10.994 178.039 11.558 178.423 12.278C178.819 12.986 179.017 13.79 179.017 14.69ZM177.325 14.348C177.325 13.724 177.187 13.19 176.911 12.746C176.635 12.29 176.257 11.948 175.777 11.72C175.309 11.48 174.787 11.36 174.211 11.36C173.383 11.36 172.675 11.624 172.087 12.152C171.511 12.68 171.181 13.412 171.097 14.348H177.325ZM184.671 20.162C183.915 20.162 183.237 20.036 182.637 19.784C182.037 19.52 181.563 19.16 181.215 18.704C180.867 18.236 180.675 17.702 180.639 17.102H182.331C182.379 17.594 182.607 17.996 183.015 18.308C183.435 18.62 183.981 18.776 184.653 18.776C185.277 18.776 185.769 18.638 186.129 18.362C186.489 18.086 186.669 17.738 186.669 17.318C186.669 16.886 186.477 16.568 186.093 16.364C185.709 16.148 185.115 15.938 184.311 15.734C183.579 15.542 182.979 15.35 182.511 15.158C182.055 14.954 181.659 14.66 181.323 14.276C180.999 13.88 180.837 13.364 180.837 12.728C180.837 12.224 180.987 11.762 181.287 11.342C181.587 10.922 182.013 10.592 182.565 10.352C183.117 10.1 183.747 9.974 184.455 9.974C185.547 9.974 186.429 10.25 187.101 10.802C187.773 11.354 188.133 12.11 188.181 13.07H186.543C186.507 12.554 186.297 12.14 185.913 11.828C185.541 11.516 185.037 11.36 184.401 11.36C183.813 11.36 183.345 11.486 182.997 11.738C182.649 11.99 182.475 12.32 182.475 12.728C182.475 13.052 182.577 13.322 182.781 13.538C182.997 13.742 183.261 13.91 183.573 14.042C183.897 14.162 184.341 14.3 184.905 14.456C185.613 14.648 186.189 14.84 186.633 15.032C187.077 15.212 187.455 15.488 187.767 15.86C188.091 16.232 188.259 16.718 188.271 17.318C188.271 17.858 188.121 18.344 187.821 18.776C187.521 19.208 187.095 19.55 186.543 19.802C186.003 20.042 185.379 20.162 184.671 20.162Z" fill="#949494"/>
<g clip-path="url(#clip1_0_265)">
<path d="M234 1.5C231.627 1.5 229.307 2.20379 227.333 3.52236C225.36 4.84094 223.822 6.71509 222.913 8.9078C222.005 11.1005 221.768 13.5133 222.231 15.8411C222.694 18.1689 223.836 20.3071 225.515 21.9853C227.193 23.6635 229.331 24.8064 231.659 25.2694C233.987 25.7324 236.399 25.4948 238.592 24.5866C240.785 23.6783 242.659 22.1402 243.978 20.1668C245.296 18.1935 246 15.8734 246 13.5C246 10.3174 244.736 7.26515 242.485 5.01472C240.235 2.76428 237.183 1.5 234 1.5V1.5ZM240.82 10.605L233.29 19.145C233.168 19.2819 233.021 19.3935 232.856 19.4733C232.692 19.5531 232.513 19.5995 232.33 19.61H232.24C231.899 19.6121 231.569 19.4874 231.315 19.26L227.285 15.685C227.008 15.439 226.84 15.093 226.818 14.7231C226.796 14.3532 226.922 13.9897 227.168 13.7125C227.413 13.4353 227.76 13.2673 228.129 13.2452C228.499 13.2232 228.863 13.349 229.14 13.595L232.14 16.24L238.745 8.74C238.99 8.46219 239.336 8.2932 239.706 8.27023C240.076 8.24726 240.44 8.37217 240.718 8.6175C240.995 8.86282 241.164 9.20846 241.187 9.57838C241.21 9.9483 241.085 10.3122 240.84 10.59L240.82 10.605Z" fill="#F0B70D"/>
</g>
<path d="M256.684 8.48V6.986H260.068V20H258.412V8.48H256.684ZM262.882 13.358C262.882 11.294 263.218 9.686 263.89 8.534C264.562 7.37 265.738 6.788 267.418 6.788C269.086 6.788 270.256 7.37 270.928 8.534C271.6 9.686 271.936 11.294 271.936 13.358C271.936 15.458 271.6 17.09 270.928 18.254C270.256 19.418 269.086 20 267.418 20C265.738 20 264.562 19.418 263.89 18.254C263.218 17.09 262.882 15.458 262.882 13.358ZM270.316 13.358C270.316 12.314 270.244 11.432 270.1 10.712C269.968 9.98 269.686 9.392 269.254 8.948C268.834 8.504 268.222 8.282 267.418 8.282C266.602 8.282 265.978 8.504 265.546 8.948C265.126 9.392 264.844 9.98 264.7 10.712C264.568 11.432 264.502 12.314 264.502 13.358C264.502 14.438 264.568 15.344 264.7 16.076C264.844 16.808 265.126 17.396 265.546 17.84C265.978 18.284 266.602 18.506 267.418 18.506C268.222 18.506 268.834 18.284 269.254 17.84C269.686 17.396 269.968 16.808 270.1 16.076C270.244 15.344 270.316 14.438 270.316 13.358ZM274.184 13.358C274.184 11.294 274.52 9.686 275.192 8.534C275.864 7.37 277.04 6.788 278.72 6.788C280.388 6.788 281.558 7.37 282.23 8.534C282.902 9.686 283.238 11.294 283.238 13.358C283.238 15.458 282.902 17.09 282.23 18.254C281.558 19.418 280.388 20 278.72 20C277.04 20 275.864 19.418 275.192 18.254C274.52 17.09 274.184 15.458 274.184 13.358ZM281.618 13.358C281.618 12.314 281.546 11.432 281.402 10.712C281.27 9.98 280.988 9.392 280.556 8.948C280.136 8.504 279.524 8.282 278.72 8.282C277.904 8.282 277.28 8.504 276.848 8.948C276.428 9.392 276.146 9.98 276.002 10.712C275.87 11.432 275.804 12.314 275.804 13.358C275.804 14.438 275.87 15.344 276.002 16.076C276.146 16.808 276.428 17.396 276.848 17.84C277.28 18.284 277.904 18.506 278.72 18.506C279.524 18.506 280.136 18.284 280.556 17.84C280.988 17.396 281.27 16.808 281.402 16.076C281.546 15.344 281.618 14.438 281.618 13.358ZM285.127 9.92C285.127 9.104 285.373 8.456 285.865 7.976C286.357 7.484 286.987 7.238 287.755 7.238C288.523 7.238 289.153 7.484 289.645 7.976C290.137 8.456 290.383 9.104 290.383 9.92C290.383 10.748 290.137 11.408 289.645 11.9C289.153 12.38 288.523 12.62 287.755 12.62C286.987 12.62 286.357 12.38 285.865 11.9C285.373 11.408 285.127 10.748 285.127 9.92ZM295.639 7.436L288.349 20H286.729L294.019 7.436H295.639ZM287.755 8.246C287.347 8.246 287.023 8.39 286.783 8.678C286.555 8.954 286.441 9.368 286.441 9.92C286.441 10.472 286.555 10.892 286.783 11.18C287.023 11.468 287.347 11.612 287.755 11.612C288.163 11.612 288.487 11.468 288.727 11.18C288.967 10.88 289.087 10.46 289.087 9.92C289.087 9.368 288.967 8.954 288.727 8.678C288.487 8.39 288.163 8.246 287.755 8.246ZM292.021 17.516C292.021 16.688 292.267 16.034 292.759 15.554C293.251 15.062 293.881 14.816 294.649 14.816C295.417 14.816 296.041 15.062 296.521 15.554C297.013 16.034 297.259 16.688 297.259 17.516C297.259 18.332 297.013 18.986 296.521 19.478C296.041 19.97 295.417 20.216 294.649 20.216C293.881 20.216 293.251 19.976 292.759 19.496C292.267 19.004 292.021 18.344 292.021 17.516ZM294.631 15.842C294.223 15.842 293.899 15.986 293.659 16.274C293.419 16.55 293.299 16.964 293.299 17.516C293.299 18.056 293.419 18.47 293.659 18.758C293.899 19.034 294.223 19.172 294.631 19.172C295.039 19.172 295.363 19.034 295.603 18.758C295.843 18.47 295.963 18.056 295.963 17.516C295.963 16.964 295.843 16.55 295.603 16.274C295.363 15.986 295.039 15.842 294.631 15.842ZM313.718 11.09C313.37 10.358 312.866 9.794 312.206 9.398C311.546 8.99 310.778 8.786 309.902 8.786C309.026 8.786 308.234 8.99 307.526 9.398C306.83 9.794 306.278 10.37 305.87 11.126C305.474 11.87 305.276 12.734 305.276 13.718C305.276 14.702 305.474 15.566 305.87 16.31C306.278 17.054 306.83 17.63 307.526 18.038C308.234 18.434 309.026 18.632 309.902 18.632C311.126 18.632 312.134 18.266 312.926 17.534C313.718 16.802 314.18 15.812 314.312 14.564H309.308V13.232H316.058V14.492C315.962 15.524 315.638 16.472 315.086 17.336C314.534 18.188 313.808 18.866 312.908 19.37C312.008 19.862 311.006 20.108 309.902 20.108C308.738 20.108 307.676 19.838 306.716 19.298C305.756 18.746 304.994 17.984 304.43 17.012C303.878 16.04 303.602 14.942 303.602 13.718C303.602 12.494 303.878 11.396 304.43 10.424C304.994 9.44 305.756 8.678 306.716 8.138C307.676 7.586 308.738 7.31 309.902 7.31C311.234 7.31 312.41 7.64 313.43 8.3C314.462 8.96 315.212 9.89 315.68 11.09H313.718ZM326.972 10.136V20H325.334V18.542C325.022 19.046 324.584 19.442 324.02 19.73C323.468 20.006 322.856 20.144 322.184 20.144C321.416 20.144 320.726 19.988 320.114 19.676C319.502 19.352 319.016 18.872 318.656 18.236C318.308 17.6 318.134 16.826 318.134 15.914V10.136H319.754V15.698C319.754 16.67 320 17.42 320.492 17.948C320.984 18.464 321.656 18.722 322.508 18.722C323.384 18.722 324.074 18.452 324.578 17.912C325.082 17.372 325.334 16.586 325.334 15.554V10.136H326.972ZM329.126 15.032C329.126 14.024 329.33 13.142 329.738 12.386C330.146 11.618 330.704 11.024 331.412 10.604C332.132 10.184 332.93 9.974 333.806 9.974C334.67 9.974 335.42 10.16 336.056 10.532C336.692 10.904 337.166 11.372 337.478 11.936V10.136H339.134V20H337.478V18.164C337.154 18.74 336.668 19.22 336.02 19.604C335.384 19.976 334.64 20.162 333.788 20.162C332.912 20.162 332.12 19.946 331.412 19.514C330.704 19.082 330.146 18.476 329.738 17.696C329.33 16.916 329.126 16.028 329.126 15.032ZM337.478 15.05C337.478 14.306 337.328 13.658 337.028 13.106C336.728 12.554 336.32 12.134 335.804 11.846C335.3 11.546 334.742 11.396 334.13 11.396C333.518 11.396 332.96 11.54 332.456 11.828C331.952 12.116 331.55 12.536 331.25 13.088C330.95 13.64 330.8 14.288 330.8 15.032C330.8 15.788 330.95 16.448 331.25 17.012C331.55 17.564 331.952 17.99 332.456 18.29C332.96 18.578 333.518 18.722 334.13 18.722C334.742 18.722 335.3 18.578 335.804 18.29C336.32 17.99 336.728 17.564 337.028 17.012C337.328 16.448 337.478 15.794 337.478 15.05ZM343.54 11.738C343.828 11.174 344.236 10.736 344.764 10.424C345.304 10.112 345.958 9.956 346.726 9.956V11.648H346.294C344.458 11.648 343.54 12.644 343.54 14.636V20H341.902V10.136H343.54V11.738ZM348.004 15.032C348.004 14.024 348.208 13.142 348.616 12.386C349.024 11.618 349.582 11.024 350.29 10.604C351.01 10.184 351.808 9.974 352.684 9.974C353.548 9.974 354.298 10.16 354.934 10.532C355.57 10.904 356.044 11.372 356.356 11.936V10.136H358.012V20H356.356V18.164C356.032 18.74 355.546 19.22 354.898 19.604C354.262 19.976 353.518 20.162 352.666 20.162C351.79 20.162 350.998 19.946 350.29 19.514C349.582 19.082 349.024 18.476 348.616 17.696C348.208 16.916 348.004 16.028 348.004 15.032ZM356.356 15.05C356.356 14.306 356.206 13.658 355.906 13.106C355.606 12.554 355.198 12.134 354.682 11.846C354.178 11.546 353.62 11.396 353.008 11.396C352.396 11.396 351.838 11.54 351.334 11.828C350.83 12.116 350.428 12.536 350.128 13.088C349.828 13.64 349.678 14.288 349.678 15.032C349.678 15.788 349.828 16.448 350.128 17.012C350.428 17.564 350.83 17.99 351.334 18.29C351.838 18.578 352.396 18.722 353.008 18.722C353.62 18.722 354.178 18.578 354.682 18.29C355.198 17.99 355.606 17.564 355.906 17.012C356.206 16.448 356.356 15.794 356.356 15.05ZM365.587 9.956C366.787 9.956 367.759 10.322 368.503 11.054C369.247 11.774 369.619 12.818 369.619 14.186V20H367.999V14.42C367.999 13.436 367.753 12.686 367.261 12.17C366.769 11.642 366.097 11.378 365.245 11.378C364.381 11.378 363.691 11.648 363.175 12.188C362.671 12.728 362.419 13.514 362.419 14.546V20H360.781V10.136H362.419V11.54C362.743 11.036 363.181 10.646 363.733 10.37C364.297 10.094 364.915 9.956 365.587 9.956ZM374.292 11.486V17.3C374.292 17.78 374.394 18.122 374.598 18.326C374.802 18.518 375.156 18.614 375.66 18.614H376.866V20H375.39C374.478 20 373.794 19.79 373.338 19.37C372.882 18.95 372.654 18.26 372.654 17.3V11.486H371.376V10.136H372.654V7.652H374.292V10.136H376.866V11.486H374.292ZM387.851 14.69C387.851 15.002 387.833 15.332 387.797 15.68H379.913C379.973 16.652 380.303 17.414 380.903 17.966C381.515 18.506 382.253 18.776 383.117 18.776C383.825 18.776 384.413 18.614 384.881 18.29C385.361 17.954 385.697 17.51 385.889 16.958H387.653C387.389 17.906 386.861 18.68 386.069 19.28C385.277 19.868 384.293 20.162 383.117 20.162C382.181 20.162 381.341 19.952 380.597 19.532C379.865 19.112 379.289 18.518 378.869 17.75C378.449 16.97 378.239 16.07 378.239 15.05C378.239 14.03 378.443 13.136 378.851 12.368C379.259 11.6 379.829 11.012 380.561 10.604C381.305 10.184 382.157 9.974 383.117 9.974C384.053 9.974 384.881 10.178 385.601 10.586C386.321 10.994 386.873 11.558 387.257 12.278C387.653 12.986 387.851 13.79 387.851 14.69ZM386.159 14.348C386.159 13.724 386.021 13.19 385.745 12.746C385.469 12.29 385.091 11.948 384.611 11.72C384.143 11.48 383.621 11.36 383.045 11.36C382.217 11.36 381.509 11.624 380.921 12.152C380.345 12.68 380.015 13.412 379.931 14.348H386.159ZM399.013 14.69C399.013 15.002 398.995 15.332 398.959 15.68H391.075C391.135 16.652 391.465 17.414 392.065 17.966C392.677 18.506 393.415 18.776 394.279 18.776C394.987 18.776 395.575 18.614 396.043 18.29C396.523 17.954 396.859 17.51 397.051 16.958H398.815C398.551 17.906 398.023 18.68 397.231 19.28C396.439 19.868 395.455 20.162 394.279 20.162C393.343 20.162 392.503 19.952 391.759 19.532C391.027 19.112 390.451 18.518 390.031 17.75C389.611 16.97 389.401 16.07 389.401 15.05C389.401 14.03 389.605 13.136 390.013 12.368C390.421 11.6 390.991 11.012 391.723 10.604C392.467 10.184 393.319 9.974 394.279 9.974C395.215 9.974 396.043 10.178 396.763 10.586C397.483 10.994 398.035 11.558 398.419 12.278C398.815 12.986 399.013 13.79 399.013 14.69ZM397.321 14.348C397.321 13.724 397.183 13.19 396.907 12.746C396.631 12.29 396.253 11.948 395.773 11.72C395.305 11.48 394.783 11.36 394.207 11.36C393.379 11.36 392.671 11.624 392.083 12.152C391.507 12.68 391.177 13.412 391.093 14.348H397.321Z" fill="#949494"/>
<g clip-path="url(#clip2_0_265)">
<path d="M12 44.5C9.62663 44.5 7.30655 45.2038 5.33316 46.5224C3.35977 47.8409 1.8217 49.7151 0.913451 51.9078C0.00519943 54.1005 -0.232441 56.5133 0.230582 58.8411C0.693605 61.1689 1.83649 63.3071 3.51472 64.9853C5.19295 66.6635 7.33115 67.8064 9.65892 68.2694C11.9867 68.7324 14.3995 68.4948 16.5922 67.5866C18.7849 66.6783 20.6591 65.1402 21.9776 63.1668C23.2962 61.1935 24 58.8734 24 56.5C24 53.3174 22.7357 50.2652 20.4853 48.0147C18.2348 45.7643 15.1826 44.5 12 44.5V44.5ZM18.82 53.605L11.29 62.145C11.1685 62.2819 11.0211 62.3935 10.8564 62.4733C10.6916 62.5531 10.5128 62.5995 10.33 62.61H10.24C9.89893 62.6121 9.56926 62.4874 9.31501 62.26L5.28501 58.685C5.00785 58.439 4.83977 58.093 4.81774 57.7231C4.7957 57.3532 4.92152 56.9897 5.16751 56.7125C5.41349 56.4353 5.7595 56.2673 6.12942 56.2452C6.49934 56.2232 6.86285 56.349 7.14001 56.595L10.14 59.24L16.745 51.74C16.9903 51.4622 17.336 51.2932 17.7059 51.2702C18.0758 51.2473 18.4397 51.3722 18.7175 51.6175C18.9953 51.8628 19.1643 52.2085 19.1873 52.5784C19.2102 52.9483 19.0853 53.3122 18.84 53.59L18.82 53.605Z" fill="#F0B70D"/>
</g>
<path d="M34.774 56.718C34.774 55.494 35.05 54.396 35.602 53.424C36.154 52.44 36.904 51.672 37.852 51.12C38.812 50.568 39.874 50.292 41.038 50.292C42.406 50.292 43.6 50.622 44.62 51.282C45.64 51.942 46.384 52.878 46.852 54.09H44.89C44.542 53.334 44.038 52.752 43.378 52.344C42.73 51.936 41.95 51.732 41.038 51.732C40.162 51.732 39.376 51.936 38.68 52.344C37.984 52.752 37.438 53.334 37.042 54.09C36.646 54.834 36.448 55.71 36.448 56.718C36.448 57.714 36.646 58.59 37.042 59.346C37.438 60.09 37.984 60.666 38.68 61.074C39.376 61.482 40.162 61.686 41.038 61.686C41.95 61.686 42.73 61.488 43.378 61.092C44.038 60.684 44.542 60.102 44.89 59.346H46.852C46.384 60.546 45.64 61.476 44.62 62.136C43.6 62.784 42.406 63.108 41.038 63.108C39.874 63.108 38.812 62.838 37.852 62.298C36.904 61.746 36.154 60.984 35.602 60.012C35.05 59.04 34.774 57.942 34.774 56.718ZM48.6783 58.032C48.6783 57.024 48.8823 56.142 49.2903 55.386C49.6983 54.618 50.2563 54.024 50.9643 53.604C51.6843 53.184 52.4823 52.974 53.3583 52.974C54.2223 52.974 54.9723 53.16 55.6083 53.532C56.2443 53.904 56.7183 54.372 57.0303 54.936V53.136H58.6863V63H57.0303V61.164C56.7063 61.74 56.2203 62.22 55.5723 62.604C54.9363 62.976 54.1923 63.162 53.3403 63.162C52.4643 63.162 51.6723 62.946 50.9643 62.514C50.2563 62.082 49.6983 61.476 49.2903 60.696C48.8823 59.916 48.6783 59.028 48.6783 58.032ZM57.0303 58.05C57.0303 57.306 56.8803 56.658 56.5803 56.106C56.2803 55.554 55.8723 55.134 55.3563 54.846C54.8523 54.546 54.2943 54.396 53.6823 54.396C53.0703 54.396 52.5123 54.54 52.0083 54.828C51.5043 55.116 51.1023 55.536 50.8023 56.088C50.5023 56.64 50.3523 57.288 50.3523 58.032C50.3523 58.788 50.5023 59.448 50.8023 60.012C51.1023 60.564 51.5043 60.99 52.0083 61.29C52.5123 61.578 53.0703 61.722 53.6823 61.722C54.2943 61.722 54.8523 61.578 55.3563 61.29C55.8723 60.99 56.2803 60.564 56.5803 60.012C56.8803 59.448 57.0303 58.794 57.0303 58.05ZM64.9464 63.162C64.1904 63.162 63.5124 63.036 62.9124 62.784C62.3124 62.52 61.8384 62.16 61.4904 61.704C61.1424 61.236 60.9504 60.702 60.9144 60.102H62.6064C62.6544 60.594 62.8824 60.996 63.2904 61.308C63.7104 61.62 64.2564 61.776 64.9284 61.776C65.5524 61.776 66.0444 61.638 66.4044 61.362C66.7644 61.086 66.9444 60.738 66.9444 60.318C66.9444 59.886 66.7524 59.568 66.3684 59.364C65.9844 59.148 65.3904 58.938 64.5864 58.734C63.8544 58.542 63.2544 58.35 62.7864 58.158C62.3304 57.954 61.9344 57.66 61.5984 57.276C61.2744 56.88 61.1124 56.364 61.1124 55.728C61.1124 55.224 61.2624 54.762 61.5624 54.342C61.8624 53.922 62.2884 53.592 62.8404 53.352C63.3924 53.1 64.0224 52.974 64.7304 52.974C65.8224 52.974 66.7044 53.25 67.3764 53.802C68.0484 54.354 68.4084 55.11 68.4564 56.07H66.8184C66.7824 55.554 66.5724 55.14 66.1884 54.828C65.8164 54.516 65.3124 54.36 64.6764 54.36C64.0884 54.36 63.6204 54.486 63.2724 54.738C62.9244 54.99 62.7504 55.32 62.7504 55.728C62.7504 56.052 62.8524 56.322 63.0564 56.538C63.2724 56.742 63.5364 56.91 63.8484 57.042C64.1724 57.162 64.6164 57.3 65.1804 57.456C65.8884 57.648 66.4644 57.84 66.9084 58.032C67.3524 58.212 67.7304 58.488 68.0424 58.86C68.3664 59.232 68.5344 59.718 68.5464 60.318C68.5464 60.858 68.3964 61.344 68.0964 61.776C67.7964 62.208 67.3704 62.55 66.8184 62.802C66.2784 63.042 65.6544 63.162 64.9464 63.162ZM75.7547 52.956C76.4987 52.956 77.1707 53.118 77.7707 53.442C78.3707 53.754 78.8387 54.228 79.1747 54.864C79.5227 55.5 79.6967 56.274 79.6967 57.186V63H78.0767V57.42C78.0767 56.436 77.8307 55.686 77.3387 55.17C76.8467 54.642 76.1747 54.378 75.3227 54.378C74.4587 54.378 73.7687 54.648 73.2527 55.188C72.7487 55.728 72.4967 56.514 72.4967 57.546V63H70.8587V49.68H72.4967V54.54C72.8207 54.036 73.2647 53.646 73.8287 53.37C74.4047 53.094 75.0467 52.956 75.7547 52.956ZM91.4732 63.162C90.5492 63.162 89.7092 62.952 88.9532 62.532C88.2092 62.112 87.6212 61.518 87.1892 60.75C86.7692 59.97 86.5592 59.07 86.5592 58.05C86.5592 57.042 86.7752 56.154 87.2072 55.386C87.6512 54.606 88.2512 54.012 89.0072 53.604C89.7632 53.184 90.6092 52.974 91.5452 52.974C92.4812 52.974 93.3272 53.184 94.0832 53.604C94.8392 54.012 95.4332 54.6 95.8652 55.368C96.3092 56.136 96.5312 57.03 96.5312 58.05C96.5312 59.07 96.3032 59.97 95.8472 60.75C95.4032 61.518 94.7972 62.112 94.0292 62.532C93.2612 62.952 92.4092 63.162 91.4732 63.162ZM91.4732 61.722C92.0612 61.722 92.6132 61.584 93.1292 61.308C93.6452 61.032 94.0592 60.618 94.3712 60.066C94.6952 59.514 94.8572 58.842 94.8572 58.05C94.8572 57.258 94.7012 56.586 94.3892 56.034C94.0772 55.482 93.6692 55.074 93.1652 54.81C92.6612 54.534 92.1152 54.396 91.5272 54.396C90.9272 54.396 90.3752 54.534 89.8712 54.81C89.3792 55.074 88.9832 55.482 88.6832 56.034C88.3832 56.586 88.2332 57.258 88.2332 58.05C88.2332 58.854 88.3772 59.532 88.6652 60.084C88.9652 60.636 89.3612 61.05 89.8532 61.326C90.3452 61.59 90.8852 61.722 91.4732 61.722ZM103.491 52.956C104.691 52.956 105.663 53.322 106.407 54.054C107.151 54.774 107.523 55.818 107.523 57.186V63H105.903V57.42C105.903 56.436 105.657 55.686 105.165 55.17C104.673 54.642 104.001 54.378 103.149 54.378C102.285 54.378 101.595 54.648 101.079 55.188C100.575 55.728 100.323 56.514 100.323 57.546V63H98.6848V53.136H100.323V54.54C100.647 54.036 101.085 53.646 101.637 53.37C102.201 53.094 102.819 52.956 103.491 52.956ZM118.903 50.454C120.271 50.454 121.453 50.712 122.449 51.228C123.457 51.732 124.225 52.458 124.753 53.406C125.293 54.354 125.563 55.47 125.563 56.754C125.563 58.038 125.293 59.154 124.753 60.102C124.225 61.038 123.457 61.758 122.449 62.262C121.453 62.754 120.271 63 118.903 63H114.997V50.454H118.903ZM118.903 61.65C120.523 61.65 121.759 61.224 122.611 60.372C123.463 59.508 123.889 58.302 123.889 56.754C123.889 55.194 123.457 53.976 122.593 53.1C121.741 52.224 120.511 51.786 118.903 51.786H116.635V61.65H118.903ZM136.724 57.69C136.724 58.002 136.706 58.332 136.67 58.68H128.786C128.846 59.652 129.176 60.414 129.776 60.966C130.388 61.506 131.126 61.776 131.99 61.776C132.698 61.776 133.286 61.614 133.754 61.29C134.234 60.954 134.57 60.51 134.762 59.958H136.526C136.262 60.906 135.734 61.68 134.942 62.28C134.15 62.868 133.166 63.162 131.99 63.162C131.054 63.162 130.214 62.952 129.47 62.532C128.738 62.112 128.162 61.518 127.742 60.75C127.322 59.97 127.112 59.07 127.112 58.05C127.112 57.03 127.316 56.136 127.724 55.368C128.132 54.6 128.702 54.012 129.434 53.604C130.178 53.184 131.03 52.974 131.99 52.974C132.926 52.974 133.754 53.178 134.474 53.586C135.194 53.994 135.746 54.558 136.13 55.278C136.526 55.986 136.724 56.79 136.724 57.69ZM135.032 57.348C135.032 56.724 134.894 56.19 134.618 55.746C134.342 55.29 133.964 54.948 133.484 54.72C133.016 54.48 132.494 54.36 131.918 54.36C131.09 54.36 130.382 54.624 129.794 55.152C129.218 55.68 128.888 56.412 128.804 57.348H135.032ZM140.524 49.68V63H138.886V49.68H140.524ZM144.162 51.534C143.85 51.534 143.586 51.426 143.37 51.21C143.154 50.994 143.046 50.73 143.046 50.418C143.046 50.106 143.154 49.842 143.37 49.626C143.586 49.41 143.85 49.302 144.162 49.302C144.462 49.302 144.714 49.41 144.918 49.626C145.134 49.842 145.242 50.106 145.242 50.418C145.242 50.73 145.134 50.994 144.918 51.21C144.714 51.426 144.462 51.534 144.162 51.534ZM144.954 53.136V63H143.316V53.136H144.954ZM151.417 61.488L154.477 53.136H156.223L152.353 63H150.445L146.575 53.136H148.339L151.417 61.488ZM166.835 57.69C166.835 58.002 166.817 58.332 166.781 58.68H158.897C158.957 59.652 159.287 60.414 159.887 60.966C160.499 61.506 161.237 61.776 162.101 61.776C162.809 61.776 163.397 61.614 163.865 61.29C164.345 60.954 164.681 60.51 164.873 59.958H166.637C166.373 60.906 165.845 61.68 165.053 62.28C164.261 62.868 163.277 63.162 162.101 63.162C161.165 63.162 160.325 62.952 159.581 62.532C158.849 62.112 158.273 61.518 157.853 60.75C157.433 59.97 157.223 59.07 157.223 58.05C157.223 57.03 157.427 56.136 157.835 55.368C158.243 54.6 158.813 54.012 159.545 53.604C160.289 53.184 161.141 52.974 162.101 52.974C163.037 52.974 163.865 53.178 164.585 53.586C165.305 53.994 165.857 54.558 166.241 55.278C166.637 55.986 166.835 56.79 166.835 57.69ZM165.143 57.348C165.143 56.724 165.005 56.19 164.729 55.746C164.453 55.29 164.075 54.948 163.595 54.72C163.127 54.48 162.605 54.36 162.029 54.36C161.201 54.36 160.493 54.624 159.905 55.152C159.329 55.68 158.999 56.412 158.915 57.348H165.143ZM170.635 54.738C170.923 54.174 171.331 53.736 171.859 53.424C172.399 53.112 173.053 52.956 173.821 52.956V54.648H173.389C171.553 54.648 170.635 55.644 170.635 57.636V63H168.997V53.136H170.635V54.738ZM184.208 53.136L178.268 67.644H176.576L178.52 62.892L174.542 53.136H176.36L179.456 61.128L182.516 53.136H184.208Z" fill="#949494"/>
<g clip-path="url(#clip3_0_265)">
<path d="M229 44.5C226.627 44.5 224.307 45.2038 222.333 46.5224C220.36 47.8409 218.822 49.7151 217.913 51.9078C217.005 54.1005 216.768 56.5133 217.231 58.8411C217.694 61.1689 218.836 63.3071 220.515 64.9853C222.193 66.6635 224.331 67.8064 226.659 68.2694C228.987 68.7324 231.399 68.4948 233.592 67.5866C235.785 66.6783 237.659 65.1402 238.978 63.1668C240.296 61.1935 241 58.8734 241 56.5C241 53.3174 239.736 50.2652 237.485 48.0147C235.235 45.7643 232.183 44.5 229 44.5V44.5ZM235.82 53.605L228.29 62.145C228.168 62.2819 228.021 62.3935 227.856 62.4733C227.692 62.5531 227.513 62.5995 227.33 62.61H227.24C226.899 62.6121 226.569 62.4874 226.315 62.26L222.285 58.685C222.008 58.439 221.84 58.093 221.818 57.7231C221.796 57.3532 221.922 56.9897 222.168 56.7125C222.413 56.4353 222.76 56.2673 223.129 56.2452C223.499 56.2232 223.863 56.349 224.14 56.595L227.14 59.24L233.745 51.74C233.99 51.4622 234.336 51.2932 234.706 51.2702C235.076 51.2473 235.44 51.3722 235.718 51.6175C235.995 51.8628 236.164 52.2085 236.187 52.5784C236.21 52.9483 236.085 53.3122 235.84 53.59L235.82 53.605Z" fill="#F0B70D"/>
</g>
<path d="M259.478 50.454V51.786H254.024V56.016H258.452V57.348H254.024V63H252.386V50.454H259.478ZM260.844 58.032C260.844 57.024 261.048 56.142 261.456 55.386C261.864 54.618 262.422 54.024 263.13 53.604C263.85 53.184 264.648 52.974 265.524 52.974C266.388 52.974 267.138 53.16 267.774 53.532C268.41 53.904 268.884 54.372 269.196 54.936V53.136H270.852V63H269.196V61.164C268.872 61.74 268.386 62.22 267.738 62.604C267.102 62.976 266.358 63.162 265.506 63.162C264.63 63.162 263.838 62.946 263.13 62.514C262.422 62.082 261.864 61.476 261.456 60.696C261.048 59.916 260.844 59.028 260.844 58.032ZM269.196 58.05C269.196 57.306 269.046 56.658 268.746 56.106C268.446 55.554 268.038 55.134 267.522 54.846C267.018 54.546 266.46 54.396 265.848 54.396C265.236 54.396 264.678 54.54 264.174 54.828C263.67 55.116 263.268 55.536 262.968 56.088C262.668 56.64 262.518 57.288 262.518 58.032C262.518 58.788 262.668 59.448 262.968 60.012C263.268 60.564 263.67 60.99 264.174 61.29C264.678 61.578 265.236 61.722 265.848 61.722C266.46 61.722 267.018 61.578 267.522 61.29C268.038 60.99 268.446 60.564 268.746 60.012C269.046 59.448 269.196 58.794 269.196 58.05ZM277.112 63.162C276.356 63.162 275.678 63.036 275.078 62.784C274.478 62.52 274.004 62.16 273.656 61.704C273.308 61.236 273.116 60.702 273.08 60.102H274.772C274.82 60.594 275.048 60.996 275.456 61.308C275.876 61.62 276.422 61.776 277.094 61.776C277.718 61.776 278.21 61.638 278.57 61.362C278.93 61.086 279.11 60.738 279.11 60.318C279.11 59.886 278.918 59.568 278.534 59.364C278.15 59.148 277.556 58.938 276.752 58.734C276.02 58.542 275.42 58.35 274.952 58.158C274.496 57.954 274.1 57.66 273.764 57.276C273.44 56.88 273.278 56.364 273.278 55.728C273.278 55.224 273.428 54.762 273.728 54.342C274.028 53.922 274.454 53.592 275.006 53.352C275.558 53.1 276.188 52.974 276.896 52.974C277.988 52.974 278.87 53.25 279.542 53.802C280.214 54.354 280.574 55.11 280.622 56.07H278.984C278.948 55.554 278.738 55.14 278.354 54.828C277.982 54.516 277.478 54.36 276.842 54.36C276.254 54.36 275.786 54.486 275.438 54.738C275.09 54.99 274.916 55.32 274.916 55.728C274.916 56.052 275.018 56.322 275.222 56.538C275.438 56.742 275.702 56.91 276.014 57.042C276.338 57.162 276.782 57.3 277.346 57.456C278.054 57.648 278.63 57.84 279.074 58.032C279.518 58.212 279.896 58.488 280.208 58.86C280.532 59.232 280.7 59.718 280.712 60.318C280.712 60.858 280.562 61.344 280.262 61.776C279.962 62.208 279.536 62.55 278.984 62.802C278.444 63.042 277.82 63.162 277.112 63.162ZM285.023 54.486V60.3C285.023 60.78 285.125 61.122 285.329 61.326C285.533 61.518 285.887 61.614 286.391 61.614H287.597V63H286.121C285.209 63 284.525 62.79 284.069 62.37C283.613 61.95 283.385 61.26 283.385 60.3V54.486H282.107V53.136H283.385V50.652H285.023V53.136H287.597V54.486H285.023ZM298.286 50.454C299.654 50.454 300.836 50.712 301.832 51.228C302.84 51.732 303.608 52.458 304.136 53.406C304.676 54.354 304.946 55.47 304.946 56.754C304.946 58.038 304.676 59.154 304.136 60.102C303.608 61.038 302.84 61.758 301.832 62.262C300.836 62.754 299.654 63 298.286 63H294.38V50.454H298.286ZM298.286 61.65C299.906 61.65 301.142 61.224 301.994 60.372C302.846 59.508 303.272 58.302 303.272 56.754C303.272 55.194 302.84 53.976 301.976 53.1C301.124 52.224 299.894 51.786 298.286 51.786H296.018V61.65H298.286ZM316.107 57.69C316.107 58.002 316.089 58.332 316.053 58.68H308.169C308.229 59.652 308.559 60.414 309.159 60.966C309.771 61.506 310.509 61.776 311.373 61.776C312.081 61.776 312.669 61.614 313.137 61.29C313.617 60.954 313.953 60.51 314.145 59.958H315.909C315.645 60.906 315.117 61.68 314.325 62.28C313.533 62.868 312.549 63.162 311.373 63.162C310.437 63.162 309.597 62.952 308.853 62.532C308.121 62.112 307.545 61.518 307.125 60.75C306.705 59.97 306.495 59.07 306.495 58.05C306.495 57.03 306.699 56.136 307.107 55.368C307.515 54.6 308.085 54.012 308.817 53.604C309.561 53.184 310.413 52.974 311.373 52.974C312.309 52.974 313.137 53.178 313.857 53.586C314.577 53.994 315.129 54.558 315.513 55.278C315.909 55.986 316.107 56.79 316.107 57.69ZM314.415 57.348C314.415 56.724 314.277 56.19 314.001 55.746C313.725 55.29 313.347 54.948 312.867 54.72C312.399 54.48 311.877 54.36 311.301 54.36C310.473 54.36 309.765 54.624 309.177 55.152C308.601 55.68 308.271 56.412 308.187 57.348H314.415ZM319.907 49.68V63H318.269V49.68H319.907ZM323.545 51.534C323.233 51.534 322.969 51.426 322.753 51.21C322.537 50.994 322.429 50.73 322.429 50.418C322.429 50.106 322.537 49.842 322.753 49.626C322.969 49.41 323.233 49.302 323.545 49.302C323.845 49.302 324.097 49.41 324.301 49.626C324.517 49.842 324.625 50.106 324.625 50.418C324.625 50.73 324.517 50.994 324.301 51.21C324.097 51.426 323.845 51.534 323.545 51.534ZM324.337 53.136V63H322.699V53.136H324.337ZM330.8 61.488L333.86 53.136H335.606L331.736 63H329.828L325.958 53.136H327.722L330.8 61.488ZM346.218 57.69C346.218 58.002 346.2 58.332 346.164 58.68H338.28C338.34 59.652 338.67 60.414 339.27 60.966C339.882 61.506 340.62 61.776 341.484 61.776C342.192 61.776 342.78 61.614 343.248 61.29C343.728 60.954 344.064 60.51 344.256 59.958H346.02C345.756 60.906 345.228 61.68 344.436 62.28C343.644 62.868 342.66 63.162 341.484 63.162C340.548 63.162 339.708 62.952 338.964 62.532C338.232 62.112 337.656 61.518 337.236 60.75C336.816 59.97 336.606 59.07 336.606 58.05C336.606 57.03 336.81 56.136 337.218 55.368C337.626 54.6 338.196 54.012 338.928 53.604C339.672 53.184 340.524 52.974 341.484 52.974C342.42 52.974 343.248 53.178 343.968 53.586C344.688 53.994 345.24 54.558 345.624 55.278C346.02 55.986 346.218 56.79 346.218 57.69ZM344.526 57.348C344.526 56.724 344.388 56.19 344.112 55.746C343.836 55.29 343.458 54.948 342.978 54.72C342.51 54.48 341.988 54.36 341.412 54.36C340.584 54.36 339.876 54.624 339.288 55.152C338.712 55.68 338.382 56.412 338.298 57.348H344.526ZM350.018 54.738C350.306 54.174 350.714 53.736 351.242 53.424C351.782 53.112 352.436 52.956 353.204 52.956V54.648H352.772C350.936 54.648 350.018 55.644 350.018 57.636V63H348.38V53.136H350.018V54.738ZM363.591 53.136L357.651 67.644H355.959L357.903 62.892L353.925 53.136H355.743L358.839 61.128L361.899 53.136H363.591Z" fill="#949494"/>
<defs>
<clipPath id="clip0_0_265">
<rect width="24" height="24" fill="white" transform="translate(0 1.5)"/>
</clipPath>
<clipPath id="clip1_0_265">
<rect width="24" height="24" fill="white" transform="translate(222 1.5)"/>
</clipPath>
<clipPath id="clip2_0_265">
<rect width="24" height="24" fill="white" transform="translate(0 44.5)"/>
</clipPath>
<clipPath id="clip3_0_265">
<rect width="24" height="24" fill="white" transform="translate(217 44.5)"/>
</clipPath>
</defs>
</svg>
